<svg xmlns="http://www.w3.org/2000/svg" viewBox="0 0 20 20">
  <g transform="translate(-2 -2)"><path d="M2 11.873a9.874 9.874 0 0 0 6.752 9.368c.494.09.674-.215.674-.477 0-.234-.008-.855-.013-1.679-2.746.6-3.326-1.323-3.326-1.323a2.611 2.611 0 0 0-1.1-1.444c-.9-.613.068-.6.068-.6a2.073 2.073 0 0 1 1.512 1.017 2.1 2.1 0 0 0 2.873.821 2.1 2.1 0 0 1 .627-1.32c-2.192-.249-4.5-1.1-4.5-4.88A3.821 3.821 0 0 1 6.59 8.707a3.547 3.547 0 0 1 .1-2.612s.826-.266 2.71 1.012a9.338 9.338 0 0 1 4.943 0C16.23 5.829 17.057 6.1 17.057 6.1a3.538 3.538 0 0 1 .1 2.612 3.811 3.811 0 0 1 1.015 2.649c0 3.793-2.308 4.628-4.508 4.872a2.354 2.354 0 0 1 .671 1.828c0 1.32-.012 2.385-.012 2.708 0 .264.177.572.678.475A9.873 9.873 0 1 0 2 11.873z" fill="#495057"/></g>
</svg>