<svg xmlns="http://www.w3.org/2000/svg" viewBox="0 0 20 20">
  <g transform="translate(-2 -2)"><path d="M11.8828 2.4702c6.0444 0 10.1156 3.9508 10.1156 8.1151.1612 4.656-5.9104 8.1338-6.8722 8.9328-.974.6538-2.7594 1.7467-3.1729 1.8902-.3835.1432-.8744.2715-.8515-.3061.0278-.3724.2327-1.1662.2057-1.584 0-.4048-.0502-.7433-.946-.9265-4.7238-.6163-8.363-3.9192-8.363-8.0147 0-4.7822 4.8763-8.1068 9.8843-8.1068zm2.817 5.9919h-.702c-.13.0224-.1949.0874-.1949.1948v2.5883l-1.9648-2.6569c-.0154-.0194-.052-.106-.1874-.126h-.7081c-.1145 0-.1794.0648-.1948.1943v4.3572c.015.1296.08.1944.1948.1944h.7006c.13-.0177.1949-.0825.1949-.1944v-2.5872l2 2.7c.0373.0543.0905.0815.1597.0816h.702c.1299-.0233.1948-.0882.1948-.1947V8.6569c-.025-.1299-.09-.1948-.1948-.1948zm-8.5912.0003h-.7307c-.1148 0-.1797.0647-.1945.1942v4.3569c0 .1143.0648.1792.1945.1947h2.8027c.1099 0 .1747-.065.1945-.1947v-.731c0-.1103-.0648-.1654-.1945-.1654H6.2743V8.6569c0-.1033-.0552-.1681-.1657-.1945zm3.7882 0h-.7306c-.1116 0-.1764.0647-.1945.1942v4.3569c0 .1715.1945.1947.1945.1947l.74-.0006c.0357-.0034.1603-.0273.1603-.1941l-.0001-.0635-.0008-.4509-.0003-.1663-.0006-.3802a5611.329 5611.329 0 0 1-.0003-.2092l-.0007-.4445-.0003-.2306-.001-.6966c0-.0762 0-.1516-.0002-.2258V8.6732l.0004-.0163c.004-.0003.004-.1696-.1658-.1945zm8.6758 0h-2.8023c-.1116-.0002-.1765.0646-.1946.1945v4.3566c0 .1188.0649.1837.1946.1947h2.8023c.1132 0 .1781-.065.1947-.1947v-.7016c-.014-.1156-.0788-.1805-.1945-.1947h-1.9063v-.7365h1.9063c.1096 0 .1744-.065.1945-.1949v-.7017c-.0135-.1164-.0783-.1813-.1945-.1948h-1.9063v-.7365h1.9063c.0943 0 .1592-.0518.1945-.1555v-.7404c0-.1046-.065-.1695-.1947-.1945z"/></g>
</svg>