<?xml version="1.0" encoding="UTF-8"?>
<!DOCTYPE svg  PUBLIC '-//W3C//DTD SVG 1.1//EN'  'http://www.w3.org/Graphics/SVG/1.1/DTD/svg11.dtd'>
<svg width="191.8pt" height="29.223pt" version="1.1" viewBox="0 0 191.8 29.223" xmlns="http://www.w3.org/2000/svg" xmlns:xlink="http://www.w3.org/1999/xlink">
<g enable-background="new">
<g data-name="P">
<clipPath id="j">
<path transform="matrix(1 0 0 -1 -32.771 142)" d="m0 0h256v256h-256z"/>
</clipPath>
<g clip-path="url(#j)">
<symbol id="g">
<path d="m0.016 0h0.493c9e-3 0 0.015 6e-3 0.015 0.016v0.146c0 9e-3 -6e-3 0.015-0.015 0.015h-0.322v0.541c0 0.01-6e-3 0.016-0.016 0.016h-0.155c-0.01 0-0.016-0.0059999-0.016-0.016v-0.702c0-0.01 6e-3 -0.016 0.016-0.016z"/>
</symbol>
<symbol id="h">
<path d="m0.016 0h0.155c0.01 0 0.016 6e-3 0.016 0.016v0.702c0 0.01-6e-3 0.016-0.016 0.016h-0.155c-0.01 0-0.016-0.0059999-0.016-0.016v-0.702c0-0.01 6e-3 -0.016 0.016-0.016z"/>
</symbol>
<symbol id="f">
<path d="m0.016 0h0.147c0.01 0 0.016 6e-3 0.016 0.016v0.433l0.263-0.438c4e-3 -7e-3 0.01-0.011 0.019-0.011h0.161c0.0099999 0 0.016 6e-3 0.016 0.016v0.702c0 0.01-0.0060001 0.016-0.016 0.016h-0.147c-0.01 0-0.016-0.0059999-0.016-0.016v-0.431l-0.262 0.436c-5e-3 0.0069999-0.01 0.011-0.019 0.011h-0.162c-0.01 0-0.016-0.0059999-0.016-0.016v-0.702c0-0.01 6e-3 -0.016 0.016-0.016z"/>
</symbol>
<symbol id="i">
<path d="m0.016 0h0.495c9e-3 0 0.016 6e-3 0.016 0.016v0.129c0 0.01-7e-3 0.016-0.016 0.016h-0.326v0.136h0.277c0.01 0 0.016 6e-3 0.016 0.016v0.124c0 0.01-6e-3 0.016-0.016 0.016h-0.277v0.12h0.314c9e-3 0 0.016 0.0060001 0.016 0.016v0.129c0 0.01-7e-3 0.016-0.016 0.016h-0.483c-0.01 0-0.016-0.0059999-0.016-0.016v-0.702c0-0.01 6e-3 -0.016 0.016-0.016z"/>
</symbol>
<symbol id="e">
<path d="m0.016 0h0.152c0.01 0 0.016 6e-3 0.016 0.016v0.19h0.077c0.012 0 0.024 0 0.035 1e-3l0.093-0.195c3e-3 -8e-3 9e-3 -0.012 0.018-0.012h0.171c0.012 0 0.018 8e-3 0.012 0.019l-0.122 0.236c0.069 0.045 0.101 0.119 0.101 0.215 0 0.173-0.095 0.264-0.308 0.264h-0.245c-0.01 0-0.016-0.0059999-0.016-0.016v-0.702c0-0.01 6e-3 -0.016 0.016-0.016m0.242 0.578c0.077 0 0.121-0.031 0.121-0.108 0-0.078-0.044-0.108-0.121-0.108h-0.074v0.216h0.074z"/>
</symbol>
<use transform="matrix(36 0 0 -36 .91117 28.132)" xlink:href="#g"/>
<use transform="matrix(36 0 0 -36 23.339 28.132)" xlink:href="#h"/>
<use transform="matrix(36 0 0 -36 35.183 28.132)" xlink:href="#f"/>
<use transform="matrix(36 0 0 -36 63.263 28.132)" xlink:href="#i"/>
<use transform="matrix(36 0 0 -36 86.087 28.132)" xlink:href="#e"/>
</g>
<g fill="#07b53b" data-name="P">
<symbol id="d">
<path d="m0.013 0h0.476c8e-3 0 0.013 5e-3 0.013 0.013v0.101c0 8e-3 -0.0050001 0.013-0.013 0.013h-0.354v0.188h0.309c8e-3 0 0.013 5e-3 0.013 0.013v0.099c0 8e-3 -5e-3 0.013-0.013 0.013h-0.309v0.167h0.342c8e-3 0 0.013 5e-3 0.013 0.013v0.101c0 0.0080001-0.0050001 0.013-0.013 0.013h-0.464c-8e-3 0-0.013-0.0049999-0.013-0.013v-0.708c0-8e-3 5e-3 -0.013 0.013-0.013z"/>
</symbol>
<symbol id="c">
<path d="m0.242 0c0.072 0 0.132 0.03 0.169 0.081l3e-3 -0.058c0-9e-3 6e-3 -0.013 0.014-0.013h0.094c0.0080001 0 0.013 5e-3 0.013 0.013v0.492c0 8e-3 -0.0049999 0.013-0.013 0.013h-0.094c-8e-3 0-0.014-4e-3 -0.014-0.013l-3e-3 -0.058c-0.037 0.051-0.097 0.081-0.169 0.081-0.148 0-0.242-0.11-0.242-0.269s0.094-0.269 0.242-0.269m0.032 0.118c-0.083 0-0.14 0.062-0.14 0.151s0.057 0.151 0.14 0.151c0.083 0 0.14-0.062 0.14-0.151s-0.057-0.151-0.14-0.151z"/>
</symbol>
<symbol id="a">
<path d="m0.263 0c0.059 0 0.116 0.025 0.153 0.093 6e-3 0.01 4e-3 0.017-4e-3 0.021l-0.078 0.035c-8e-3 4e-3 -0.014 9.9998e-4 -0.018-6e-3 -0.01-0.018-0.022-0.025-0.039-0.025-0.04 0-0.058 0.028-0.058 0.084v0.21h0.123c8e-3 0 0.013 5e-3 0.013 0.013v0.09c0 8e-3 -5e-3 0.013-0.013 0.013h-0.123v0.139c0 8e-3 -5e-3 0.013-0.013 0.013h-0.104c-8e-3 0-0.013-5e-3 -0.013-0.013v-0.139h-0.076c-8e-3 0-0.013-5e-3 -0.013-0.013v-0.09c0-8e-3 5e-3 -0.013 0.013-0.013h0.076v-0.202c0-0.14 0.062-0.21 0.174-0.21z"/>
</symbol>
<symbol id="b">
<path d="m0.228 0c0.119 0 0.205 0.061 0.205 0.156 0 0.086-0.043 0.14-0.17 0.172l-0.024 6e-3c-0.057 0.014-0.08 0.028-0.08 0.052 0 0.027 0.027 0.037 0.061 0.037 0.044 0 0.071-0.021 0.089-0.053 4e-3 -7e-3 9e-3 -0.01 0.017-7e-3l0.091 0.029c8e-3 2e-3 0.011 8e-3 8e-3 0.016-0.032 0.088-0.103 0.13-0.203 0.13-0.117 0-0.197-0.064-0.197-0.152 0-0.08 0.048-0.141 0.172-0.176l0.025-7e-3c0.055-0.016 0.077-0.028 0.077-0.05 0-0.029-0.032-0.038-0.076-0.038-0.044 0-0.08 0.014-0.104 0.056-3e-3 7e-3 -9e-3 0.01-0.016 8e-3l-0.091-0.025c-8e-3 -2e-3 -0.012-8e-3 -9e-3 -0.016 0.033-0.09 0.112-0.138 0.225-0.138z"/>
</symbol>
<use transform="matrix(36 0 0 -36 116.58 28.132)" xlink:href="#d"/>
<use transform="matrix(36 0 0 -36 137.38 28.492)" xlink:href="#c"/>
<use transform="matrix(36 0 0 -36 159.34 28.492)" xlink:href="#a"/>
<use transform="matrix(36 0 0 -36 175.44 28.492)" xlink:href="#b"/>
</g>
</g>
</g>
</svg>
